<svg width="1029" height="148" viewBox="0 0 1029 148" fill="none" xmlns="http://www.w3.org/2000/svg">
<path d="M126.348 2.89999V145H104.627L26.269 48.778V145H0.0820009V2.89999H21.803L100.161 99.122V2.89999H126.348ZM230.806 147.03C216.325 147.03 203.265 143.917 191.627 137.692C179.988 131.331 170.853 122.602 164.222 111.505C157.59 100.272 154.275 87.754 154.275 73.95C154.275 60.146 157.59 47.6953 164.222 36.598C170.853 25.3653 179.988 16.6363 191.627 10.411C203.265 4.05032 216.325 0.869992 230.806 0.869992C245.286 0.869992 258.346 4.05032 269.985 10.411C281.623 16.6363 290.758 25.2977 297.39 36.395C304.021 47.4923 307.337 60.0107 307.337 73.95C307.337 87.8893 304.021 100.408 297.39 111.505C290.758 122.602 281.623 131.331 269.985 137.692C258.346 143.917 245.286 147.03 230.806 147.03ZM230.806 123.888C240.279 123.888 248.805 121.79 256.384 117.595C263.962 113.264 269.917 107.31 274.248 99.731C278.578 92.017 280.744 83.4233 280.744 73.95C280.744 64.4767 278.578 55.9507 274.248 48.372C269.917 40.658 263.962 34.7033 256.384 30.508C248.805 26.1773 240.279 24.012 230.806 24.012C221.332 24.012 212.806 26.1773 205.228 30.508C197.649 34.7033 191.694 40.658 187.364 48.372C183.033 55.9507 180.868 64.4767 180.868 73.95C180.868 83.4233 183.033 92.017 187.364 99.731C191.694 107.31 197.649 113.264 205.228 117.595C212.806 121.79 221.332 123.888 230.806 123.888ZM460.67 2.89999L398.755 145H372.771L310.653 2.89999H339.276L386.575 112.52L434.28 2.89999H460.67ZM563.267 112.114H492.217L478.21 145H451.008L514.953 2.89999H540.937L605.085 145H577.477L563.267 112.114ZM554.538 91.408L527.742 29.29L501.149 91.408H554.538ZM644.846 25.23H597.75V2.89999H718.332V25.23H671.236V145H644.846V25.23ZM802.536 147.03C788.056 147.03 774.996 143.917 763.357 137.692C751.719 131.331 742.584 122.602 735.952 111.505C729.321 100.272 726.005 87.754 726.005 73.95C726.005 60.146 729.321 47.6953 735.952 36.598C742.584 25.3653 751.719 16.6363 763.357 10.411C774.996 4.05032 788.056 0.869992 802.536 0.869992C817.017 0.869992 830.077 4.05032 841.715 10.411C853.354 16.6363 862.489 25.2977 869.12 36.395C875.752 47.4923 879.067 60.0107 879.067 73.95C879.067 87.8893 875.752 100.408 869.12 111.505C862.489 122.602 853.354 131.331 841.715 137.692C830.077 143.917 817.017 147.03 802.536 147.03ZM802.536 123.888C812.01 123.888 820.536 121.79 828.114 117.595C835.693 113.264 841.648 107.31 845.978 99.731C850.309 92.017 852.474 83.4233 852.474 73.95C852.474 64.4767 850.309 55.9507 845.978 48.372C841.648 40.658 835.693 34.7033 828.114 30.508C820.536 26.1773 812.01 24.012 802.536 24.012C793.063 24.012 784.537 26.1773 776.958 30.508C769.38 34.7033 763.425 40.658 759.094 48.372C754.764 55.9507 752.598 64.4767 752.598 73.95C752.598 83.4233 754.764 92.017 759.094 99.731C763.425 107.31 769.38 113.264 776.958 117.595C784.537 121.79 793.063 123.888 802.536 123.888ZM1000.01 145L970.985 103.385C969.767 103.52 967.94 103.588 965.504 103.588H933.43V145H907.04V2.89999H965.504C977.819 2.89999 988.511 4.92999 997.578 8.99C1006.78 13.05 1013.82 18.8693 1018.69 26.448C1023.56 34.0267 1026 43.0263 1026 53.447C1026 64.1383 1023.36 73.341 1018.08 81.055C1012.94 88.769 1005.5 94.5207 995.751 98.31L1028.43 145H1000.01ZM999.405 53.447C999.405 44.3797 996.428 37.41 990.473 32.538C984.518 27.666 975.789 25.23 964.286 25.23H933.43V81.867H964.286C975.789 81.867 984.518 79.431 990.473 74.559C996.428 69.5517 999.405 62.5143 999.405 53.447Z" fill="white"/>
</svg>
